<!--?xml version="1.0" standalone="no"?--><svg version="1.0" xmlns="http://www.w3.org/2000/svg" width="170.000000pt" height="300.000000pt" viewBox="0 0 170.000000 300.000000" preserveAspectRatio="xMidYMid meet">
<metadata>
  <rdf:rdf xmlns:rdf="http://www.w3.org/1999/02/22-rdf-syntax-ns#" xmlns:rdfs="http://www.w3.org/2000/01/rdf-schema#" xmlns:dc="http://purl.org/dc/elements/1.1/">
    <rdf:description dc:title="student silhouette" dc:publisher="Hiox" dc:date="2015-06-12" dc:format="image/svg+xml" dc:language="en">
      <dc:creator>
        <rdf:bag>
          <rdf:li>svgimages.com</rdf:li>
        </rdf:bag>
      </dc:creator>
    </rdf:description>
  </rdf:rdf>
</metadata>
<g transform="translate(0.000000,300.000000) scale(0.100000,-0.100000)" fill="#060606" stroke="none">
<path class="node" id="node1" d="M518 2993 c-42 -6 -84 -55 -92 -105 -4 -24 -7 -85 -6 -135 1 -85 0
-93 -17 -93 -11 0 -28 -12 -40 -28 -14 -19 -41 -34 -92 -50 -85 -28 -121 -61
-155 -147 -23 -58 -23 -68 -20 -287 2 -126 7 -236 13 -245 5 -10 12 -43 16
-74 6 -50 5 -57 -12 -61 -15 -4 -23 -31 -46 -168 -31 -182 -31 -180 40 -180
39 0 73 -19 73 -40 0 -4 19 -11 41 -15 l41 -7 -6 -72 c-3 -39 -9 -97 -12 -128
-4 -34 -2 -77 5 -104 11 -42 10 -48 -8 -61 -11 -7 -23 -30 -27 -51 -4 -20 -30
-95 -59 -167 -55 -134 -75 -225 -75 -335 0 -53 -4 -68 -31 -104 -26 -37 -31
-54 -35 -117 -2 -41 -7 -91 -10 -112 -8 -42 12 -66 54 -67 12 0 35 -8 49 -17
21 -14 53 -19 138 -21 60 -2 116 1 124 6 24 17 3 70 -38 96 -59 38 -66 50 -51
95 11 33 10 42 -9 79 -11 22 -25 43 -31 47 -16 10 -12 51 7 66 9 8 24 27 34
43 l18 29 6 -29 c3 -16 13 -52 22 -81 12 -40 13 -56 5 -66 -12 -14 -10 -116 3
-136 9 -15 121 -14 145 1 16 10 24 9 49 -10 25 -18 43 -22 109 -22 95 0 142
14 142 41 0 29 -45 69 -76 69 -43 0 -94 30 -122 73 -24 36 -27 50 -29 150 -2
61 -8 127 -15 146 -7 20 -13 63 -13 96 -1 33 -5 86 -9 117 -8 56 -8 57 22 72
16 8 34 28 41 43 12 30 42 152 61 246 10 52 14 58 32 53 15 -3 29 4 48 24 37
40 44 89 19 146 -23 55 -23 63 -4 84 13 14 13 24 0 86 -8 38 -17 105 -21 149
-3 44 -12 116 -20 160 -13 73 -21 263 -15 377 2 58 -17 105 -69 166 -45 54
-49 72 -20 90 11 6 17 18 14 26 -3 8 12 37 35 66 23 29 41 56 41 62 0 17 73
193 82 196 18 8 7 40 -15 46 -13 3 -44 26 -69 51 -47 47 -68 52 -160 38z"></path>
<path class="node" id="node2" d="M1133 2901 c-90 -23 -118 -75 -118 -219 0 -56 -4 -102 -9 -102 -4 0
-5 -7 -2 -16 5 -13 1 -15 -21 -10 l-28 7 26 -24 c35 -34 65 -48 83 -41 29 11
17 -28 -16 -57 -30 -24 -32 -29 -22 -55 8 -22 6 -45 -9 -99 -15 -58 -18 -94
-14 -208 4 -97 1 -161 -9 -215 -8 -42 -19 -149 -24 -237 -5 -104 -14 -177 -25
-208 -20 -56 -13 -112 15 -130 11 -6 20 -17 20 -24 0 -7 7 -16 16 -21 9 -5 26
-49 41 -108 22 -85 27 -132 33 -329 5 -126 12 -280 16 -342 4 -72 3 -117 -3
-125 -6 -7 -13 -25 -17 -41 -4 -17 -25 -40 -56 -63 -57 -41 -71 -71 -44 -92
25 -19 143 -11 159 11 6 9 29 17 50 19 56 4 64 37 35 130 -20 63 -21 83 -15
177 4 58 13 144 21 191 7 47 14 112 14 145 l1 60 23 -50 c12 -28 35 -91 50
-140 15 -50 43 -139 63 -200 19 -60 37 -131 40 -157 5 -45 3 -58 -27 -118 -4
-8 -25 -28 -47 -45 -22 -16 -48 -42 -57 -56 -24 -41 -1 -54 95 -54 67 0 81 3
101 23 14 12 27 19 31 16 3 -4 18 -4 32 0 24 6 25 9 25 80 0 58 -4 79 -20 99
-15 19 -26 67 -45 194 -40 265 -52 323 -90 408 -33 76 -35 85 -35 195 0 157 6
188 40 205 27 14 27 15 24 97 -2 46 -6 113 -9 150 -6 82 5 118 38 118 13 0 34
11 47 25 12 13 32 23 44 22 17 -2 29 14 64 85 39 78 44 98 57 215 8 70 17 146
21 169 5 35 3 42 -13 46 -11 3 -24 20 -31 44 -16 53 -59 92 -118 107 -46 12
-49 14 -47 44 3 36 -21 63 -39 45 -9 -9 -17 -6 -33 14 -15 19 -31 26 -60 27
-33 2 -41 6 -43 23 -2 15 4 24 20 29 l23 8 -22 4 c-24 5 -32 23 -11 23 6 0 3
6 -7 14 -17 12 -17 19 -6 88 15 96 4 149 -41 195 -37 37 -81 47 -135 34z"></path>
</g>
<g transform="translate(0.000000,300.000000) scale(0.100000,-0.100000)" fill="#FFFFFF" stroke="none">



</g>
</svg>